<svg width="17" height="17" viewBox="0 0 17 17" fill="none" xmlns="http://www.w3.org/2000/svg">
<g clip-path="url(#clip0_887_6250)">
<rect x="0.719727" y="0.939453" width="15.98" height="15.98" rx="7" fill="white"/>
<path d="M8.58984 6.39859L10.8774 8.68611L10.8883 8.56629C10.8883 7.36442 9.91154 6.3877 8.70967 6.3877L8.58984 6.39859Z" fill="url(#paint0_linear_887_6250)"/>
<path d="M8.71026 4.9356C10.7146 4.9356 12.3413 6.5623 12.3413 8.56661C12.3413 9.035 12.2469 9.48162 12.0835 9.89191L14.2076 12.016C15.3042 11.101 16.1683 9.91734 16.7021 8.56661C15.4422 5.37861 12.3449 3.12012 8.7103 3.12012C7.69361 3.12012 6.72052 3.30166 5.81641 3.62844L7.385 5.19339C7.79525 5.03364 8.24187 4.9356 8.71026 4.9356Z" fill="url(#paint1_linear_887_6250)"/>
<path d="M1.44787 2.95666L3.1036 4.6124L3.43403 4.94283C2.2358 5.87963 1.28811 7.12507 0.72168 8.56655C1.97801 11.7545 5.07887 14.013 8.70987 14.013C9.83549 14.013 10.9103 13.7952 11.8943 13.3994L12.2029 13.708L14.3198 15.8285L15.2457 14.9063L2.37377 2.03076L1.44787 2.95666ZM5.46377 6.96892L6.58574 8.0909C6.55306 8.24704 6.53128 8.40315 6.53128 8.56655C6.53128 9.76842 7.508 10.7451 8.70987 10.7451C8.87327 10.7451 9.02941 10.7234 9.18191 10.6907L10.3039 11.8127C9.82096 12.0523 9.28359 12.1976 8.70987 12.1976C6.70557 12.1976 5.07887 10.5709 5.07887 8.56655C5.07887 7.99286 5.22412 7.45546 5.46377 6.96892Z" fill="url(#paint2_linear_887_6250)"/>
</g>
<defs>
<linearGradient id="paint0_linear_887_6250" x1="9.80632" y1="5.64892" x2="10.3281" y2="11.3301" gradientUnits="userSpaceOnUse">
<stop stop-color="#FFC760"/>
<stop offset="1" stop-color="#CC922F"/>
</linearGradient>
<linearGradient id="paint1_linear_887_6250" x1="11.5779" y1="0.260714" x2="13.2329" y2="22.3108" gradientUnits="userSpaceOnUse">
<stop stop-color="#FFC760"/>
<stop offset="1" stop-color="#CC922F"/>
</linearGradient>
<linearGradient id="paint2_linear_887_6250" x1="8.40878" y1="-2.40423" x2="11.387" y2="31.7288" gradientUnits="userSpaceOnUse">
<stop stop-color="#FFC760"/>
<stop offset="1" stop-color="#CC922F"/>
</linearGradient>
<clipPath id="clip0_887_6250">
<rect x="0.719727" y="0.939453" width="15.98" height="15.98" rx="7" fill="white"/>
</clipPath>
</defs>
</svg>
