<svg width="22" height="22" viewBox="0 0 22 22" fill="none" xmlns="http://www.w3.org/2000/svg">
<path d="M17.424 7.09316C17.3507 7.09316 17.2884 7.0785 17.237 7.04917C17.1857 7.01984 17.1454 6.96851 17.116 6.89518L16.4781 5.39928L14.8722 4.69533C14.7989 4.666 14.7475 4.62567 14.7182 4.57434C14.6889 4.52301 14.6742 4.46068 14.6742 4.38735C14.6742 4.31402 14.6889 4.25169 14.7182 4.20036C14.7475 4.14903 14.7989 4.1087 14.8722 4.07937L16.4781 3.39742L17.116 1.96752C17.1454 1.89419 17.1857 1.84286 17.237 1.81353C17.2884 1.7842 17.3507 1.76953 17.424 1.76953C17.4973 1.76953 17.5597 1.7842 17.611 1.81353C17.6623 1.84286 17.7027 1.89419 17.732 1.96752L18.37 3.39742L19.9758 4.07937C20.0492 4.1087 20.1005 4.14903 20.1298 4.20036C20.1592 4.25169 20.1738 4.31402 20.1738 4.38735C20.1738 4.46068 20.1592 4.52301 20.1298 4.57434C20.1005 4.62567 20.0492 4.666 19.9758 4.69533L18.37 5.39928L17.732 6.89518C17.7027 6.96851 17.6623 7.01984 17.611 7.04917C17.5597 7.0785 17.4973 7.09316 17.424 7.09316ZM17.424 20.2043C17.3654 20.2043 17.3067 20.1896 17.248 20.1603C17.1894 20.1309 17.1454 20.0796 17.116 20.0063L16.4781 18.5764L14.8942 17.8944C14.8209 17.8651 14.7695 17.8248 14.7402 17.7734C14.7109 17.7221 14.6962 17.6598 14.6962 17.5864C14.6962 17.5131 14.7109 17.4508 14.7402 17.3995C14.7695 17.3481 14.8209 17.3078 14.8942 17.2785L16.4781 16.5965L17.116 15.0786C17.1454 15.0053 17.1857 14.954 17.237 14.9246C17.2884 14.8953 17.3507 14.8806 17.424 14.8806C17.4973 14.8806 17.5597 14.8953 17.611 14.9246C17.6623 14.954 17.7027 15.0053 17.732 15.0786L18.37 16.5965L19.9538 17.2785C20.0272 17.3078 20.0785 17.3481 20.1078 17.3995C20.1372 17.4508 20.1518 17.5131 20.1518 17.5864C20.1518 17.6598 20.1372 17.7221 20.1078 17.7734C20.0785 17.8248 20.0272 17.8651 19.9538 17.8944L18.37 18.5764L17.732 20.0063C17.7027 20.0796 17.6587 20.1309 17.6 20.1603C17.5413 20.1896 17.4827 20.2043 17.424 20.2043ZM7.76668 16.3985C7.64936 16.3985 7.5357 16.3655 7.42571 16.2995C7.31572 16.2335 7.23139 16.1419 7.17273 16.0245L5.74282 12.9668L2.66304 11.5809C2.54571 11.5222 2.45405 11.4379 2.38806 11.3279C2.32206 11.2179 2.28906 11.1042 2.28906 10.9869C2.28906 10.8696 2.32206 10.7559 2.38806 10.6459C2.45405 10.5359 2.54571 10.4516 2.66304 10.3929L5.74282 9.00703L7.17273 5.97124C7.23139 5.83925 7.31572 5.74026 7.42571 5.67426C7.5357 5.60827 7.64936 5.57527 7.76669 5.57527C7.88401 5.57527 7.99767 5.60827 8.10766 5.67426C8.21765 5.74026 8.30198 5.83192 8.36064 5.94924L9.81254 9.00703L12.8703 10.3929C13.0023 10.4516 13.1013 10.5359 13.1673 10.6459C13.2333 10.7559 13.2663 10.8696 13.2663 10.9869C13.2663 11.1042 13.2333 11.2179 13.1673 11.3279C13.1013 11.4379 13.0023 11.5222 12.8703 11.5809L9.81254 12.9668L8.36064 16.0245C8.30198 16.1565 8.21765 16.2519 8.10766 16.3105C7.99767 16.3692 7.88401 16.3985 7.76668 16.3985Z" fill="#ffc760"/>
</svg>
