<svg xmlns="http://www.w3.org/2000/svg" viewBox="0 0 7156.3 1412.25"><defs><style>.cls-1{fill:#1a2042;}.cls-2{fill:#ffc760;}.cls-3{fill:#cc922f;}</style></defs><g id="Layer_2" data-name="Layer 2"><g id="Layer_1-2" data-name="Layer 1"><path class="cls-1" d="M1820.79,762.86q-11.62-32.73-16.91-50.16t-9.5-36.44l-41.17,2.11V598.12h253.42V665.7q-41.2,1.08-41.18,44.36,0,10.58,6.34,38l35.89,128.82a944.47,944.47,0,0,1,22.17,100.31h1.06q2.11-8.44,8.44-40.11t19-73.92l77.08-265h115.11L2335,889.56q7.39,26.41,25.35,95h1q4.23-30.62,24.3-91.86l41.17-134.11q7.39-25.33,14.78-45.92a343.28,343.28,0,0,1,15.85-37.49v-1.06l-60.19,4.22V598.12H2598V665.7q-56,0-95,114l-120.37,349.51H2270.62l-72.86-224.92q-16.92-52.79-37-129.88h-1.05q-11.62,63.38-48.58,180.57l-58.07,174.23H1948.56Z"/><path class="cls-1" d="M2695.08,1108.67q-59.13-34.32-91.86-97.67t-32.73-147.83q0-73.92,33.25-138.86t93.45-104q60.2-39.07,137.28-39.08,102.42,0,170.53,60.19T3072.05,842l-346.34,6.35q0,92.93,35.37,146.78T2874.6,1049q36.93,0,79.19-19t76-60.2l47.51,44.36q-89.76,128.8-246,128.81Q2754.21,1143,2695.08,1108.67Zm231.25-334.21q-3.18-119.3-86.58-119.31-45.42,0-72.34,32.21t-35.36,87.1Z"/><path class="cls-1" d="M3188.73,1110.25q-48-32.73-75-93.44t-26.92-141q0-84.47,32.72-151.53T3212,619.25q59.67-38,136.75-38,41.18,0,94,19V530.54q0-50.67,4.22-92.92-34.84,3.19-75,3.17V360.54q66.53,0,107.71-9.5t54.9-22.17h57V956.09q0,50.7-4.22,92.92,34.83-3.16,68.64-3.17v80.25H3455.35l-5.28-48.58H3449q-62.3,65.49-148.87,65.47Q3236.77,1143,3188.73,1110.25Zm215.94-77.08a112.38,112.38,0,0,0,38-37V679.43q-11.62-8.43-32.75-14.25a158.68,158.68,0,0,0-42.22-5.81q-67.59,1.08-96.62,58.08t-29,142.55q0,76,28,131.46t85,55.44A96,96,0,0,0,3404.67,1033.17Z"/><path class="cls-1" d="M3765.26,1110.25q-48-32.73-75-93.44t-26.92-141q0-84.47,32.72-151.53t92.39-105.06q59.67-38,136.75-38,41.17,0,94,19V530.54q0-50.67,4.22-92.92-34.84,3.19-75,3.17V360.54q66.52,0,107.7-9.5t54.91-22.17h57V956.09q0,50.7-4.22,92.92,34.83-3.16,68.64-3.17v80.25H4031.88l-5.28-48.58h-1.06Q3963.25,1143,3876.66,1143,3813.29,1143,3765.26,1110.25Zm215.94-77.08a112.38,112.38,0,0,0,38-37V679.43q-11.62-8.43-32.75-14.25a158.68,158.68,0,0,0-42.22-5.81q-67.59,1.08-96.62,58.08t-29,142.55q0,76,28,131.46t85,55.44A96,96,0,0,0,3981.2,1033.17Z"/><path class="cls-1" d="M4249.4,1057.45q40.13,0,51.2-22.17t11.09-71.8V788.2q0-49.63,4.22-91.88L4242,699.5V619.25q66.51,0,107.68-9.5t54.93-22.18h57V956.09q0,50.7-4.22,92.92,33.78-3.16,68.64-3.17v80.25H4249.4Zm89.75-588.67q-23.25-24.79-23.24-60.72t24.28-61.77q24.29-25.87,57-25.87,33.78,0,56.49,25.34t22.7,62.3q0,37-21.64,61.25t-56.5,24.28Q4362.36,493.59,4339.15,468.78Z"/><path class="cls-1" d="M4541.88,1057.45q40.13,0,51.21-22.17t11.09-71.8V786.07q0-47.51,4.22-89.75l-73.91,3.18V619.25q66.53,0,107.69-9.5t54.92-22.18h51.74q0,2.11,4.23,52.79h2.11q30.61-24.29,75.5-41.71t76.55-17.42q96.09,0,137.26,54.91t41.19,178.45v141.5q0,50.7-4.22,92.92,34.83-3.16,68.63-3.17v80.25H4873.45v-68.64q40.13,0,51.73-22.17t11.61-71.8l-1.05-149.94q0-69.7-19.54-102.43t-66-32.74q-25.35,0-51.75,11.09t-44.34,28V956.09q0,50.7-4.22,92.92,33.77-3.16,68.64-3.17v80.25H4541.88Z"/><path class="cls-1" d="M5203.39,1373.18q-56.48-39.09-56.48-99.26,0-37,23.75-69.16t76.56-52.28q-41.18-11.62-59.65-35.89t-18.49-57q0-31.68,24.81-64.42t77.63-48.56v-1.06q-47.54-19-75.5-59.66t-28-96.62q0-59.12,33.25-106.64t87.64-74.44a254.85,254.85,0,0,1,114.58-26.94,300.36,300.36,0,0,1,66.52,7.92q34.84,7.92,59.14,24.81,20.06-54.88,53.84-91.32t80.27-36.44q34.83,0,53.84,17.95t19,49.63q0,24.27-15.31,44.34t-48,20.06q-16.92,0-33.27-12.14T5620,577q-13.73,4.22-27.47,26.92t-15.83,41.71a189.69,189.69,0,0,1,45.93,61.25,174.3,174.3,0,0,1,16.37,75q0,59.14-33.8,107.18t-88.68,75a262.7,262.7,0,0,1-117.21,26.92l-29.57-1.06q-23.23-2.11-33.79-2.11-23.25,0-39.07,8.45T5281,1019.43q0,19,29,26.94t106.12,12.14q133,7.41,201.68,44.36t68.64,123.53q0,57-43.83,99.27t-113,64.4a462.13,462.13,0,0,1-142,22.18Q5259.88,1412.25,5203.39,1373.18Zm296.72-46.47q34.32-12.68,52.28-32.2t18-39.59q0-32.75-37.5-49.63t-114.57-20.08q-8.46-1.05-27.45-1-10.58-1.08-37-2.64t-43.28-4.75a86.1,86.1,0,0,0-24.83,32.73,97.62,97.62,0,0,0-9,40.13q0,41.14,38.55,65.47t102.95,24.28Q5465.8,1339.39,5500.11,1326.71Zm-32.73-442.42q23.76-35.89,23.76-83.42,0-60.18-23.23-104.53T5402.44,652q-40.12,0-64.41,36.95t-24.28,87.64q0,59.16,24.28,101.38t65.47,42.23Q5443.63,920.18,5467.38,884.29Z"/><path class="cls-1" d="M5843.81,1131.37q-43.29-11.59-67.57-29.56h-1.05l3.15,31.67h-80.25l-4.21-181.62h68.64q5.26,48.58,51.2,81.84T5926.19,1067q29.55,0,51.2-13.73t21.66-39.06q0-19-13.74-31.69a119.29,119.29,0,0,0-32.73-21.11q-19-8.43-76-30.62-67.59-26.4-101.38-43.3t-60.7-50.16q-26.93-33.25-26.92-86.06a164.56,164.56,0,0,1,21.64-81.83q21.63-38.53,66.51-63.36t110.36-24.81q30.61,0,66.52,9.5t60.19,26.41h1.06l-1.06-30.63H6093V773.4h-68.64q-9.53-54.89-48.58-86.58t-96.08-31.67q-29.58,0-49.63,13.74T5810,711.11q0,29.57,23.22,43.82t78.14,32.21q6.33,1.08,27.45,8.45,89.77,31.68,137.8,73.91t48,110.87q0,52.8-26.92,89.24t-70.75,54.9q-43.83,18.45-94.5,18.47A341,341,0,0,1,5843.81,1131.37Z"/><path class="cls-1" d="M6174.3,1119.23q-22.17-23.76-22.17-58.61,0-33.76,23.23-58.06t53.86-24.3q32.71,0,54.37,24.3t21.65,58.06q0,34.86-20.6,58.61T6230.27,1143Q6196.48,1143,6174.3,1119.23Z"/><path class="cls-1" d="M6342.19,1057.45q40.13,0,51.2-22.17t11.1-71.8V788.2q0-49.63,4.22-91.88l-73.91,3.18V619.25q66.51,0,107.69-9.5t54.92-22.18h57V956.09q0,50.7-4.21,92.92,33.77-3.16,68.64-3.17v80.25H6342.19Zm89.75-588.67q-23.25-24.79-23.23-60.72T6433,346.29q24.27-25.87,57-25.87,33.76,0,56.48,25.34t22.71,62.3q0,37-21.64,61.25t-56.5,24.28Q6455.16,493.59,6431.94,468.78Z"/><path class="cls-1" d="M6755,1110.25q-61.24-32.73-96.08-94t-34.84-142.55q0-85.53,35.89-152.05t96.62-103.48q60.71-37,133.58-37,76,0,136.22,32.73t95,94.52q34.83,61.78,34.84,144.13,0,87.64-33.26,153.1t-92.92,101.38Q6970.44,1143,6893.38,1143T6755,1110.25Zm221.75-96.08Q7000,960.31,7000,879q0-90.81-26.4-157.32t-83.41-66.53q-58.08,0-84.49,54.91t-26.39,135.15q0,91.88,28.5,157.33t87.66,65.47Q6953.57,1068,6976.79,1014.17Z"/><path class="cls-2" d="M1408.08,446.87c-49.69,17-112.25,41.51-162.54,71.56a280.47,280.47,0,0,1-81.38,173.17l-459,458.8-459-458.8A282.14,282.14,0,0,1,445.91,209.71c72.38,0,144.55,27.39,199.55,82.39L705,352l59.9-59.91c62.57-62.56,147.62-89.55,229.61-80.76,30.87-34.55,78.3-84.64,133.71-134.12C989.76,22.63,829.68,40,705.16,129,531.17,4.43,286.85,20.38,130.65,176.58,46.41,260.82,0,372.66,0,491.85s46.41,231,130.65,315.27l574.51,574.72,574.72-574.72a444.72,444.72,0,0,0,130.45-315.27C1410.33,476.93,1409.51,461.8,1408.08,446.87Z"/><path class="cls-3" d="M273.75,531.75,434.4,321.6S625.21,496.18,709.52,646.24c0,0,272.91-406.62,692.25-646.24l201.9,283.18s-586.89,144.88-812.88,591H652.64S561.6,617.88,273.75,531.75Z"/></g></g></svg>