<svg width="21" height="17" viewBox="0 0 21 17" fill="none" xmlns="http://www.w3.org/2000/svg">
<path d="M18.2539 0.570312H2.25391C1.15391 0.570312 0.253906 1.47031 0.253906 2.57031V14.5703C0.253906 15.6703 1.15391 16.5703 2.25391 16.5703H18.2539C19.3539 16.5703 20.2539 15.6703 20.2539 14.5703V2.57031C20.2539 1.47031 19.3539 0.570312 18.2539 0.570312ZM17.8539 4.82031L11.3139 8.91031C10.6639 9.32031 9.84391 9.32031 9.19391 8.91031L2.65391 4.82031C2.55363 4.76402 2.46583 4.68797 2.39579 4.59677C2.32576 4.50556 2.27497 4.40109 2.24648 4.28968C2.21799 4.17828 2.21241 4.06225 2.23006 3.94862C2.24772 3.83499 2.28824 3.72613 2.34919 3.62861C2.41013 3.5311 2.49023 3.44697 2.58463 3.38131C2.67903 3.31565 2.78578 3.26982 2.8984 3.24661C3.01103 3.2234 3.12719 3.22328 3.23986 3.24626C3.35253 3.26924 3.45937 3.31485 3.55391 3.38031L10.2539 7.57031L16.9539 3.38031C17.0484 3.31485 17.1553 3.26924 17.268 3.24626C17.3806 3.22328 17.4968 3.2234 17.6094 3.24661C17.722 3.26982 17.8288 3.31565 17.9232 3.38131C18.0176 3.44697 18.0977 3.5311 18.1586 3.62861C18.2196 3.72613 18.2601 3.83499 18.2778 3.94862C18.2954 4.06225 18.2898 4.17828 18.2613 4.28968C18.2328 4.40109 18.182 4.50556 18.112 4.59677C18.042 4.68797 17.9542 4.76402 17.8539 4.82031Z" fill="url(#paint0_linear_2517_11109)"/>
<defs>
<linearGradient id="paint0_linear_2517_11109" x1="10.8393" y1="-4.57254" x2="13.754" y2="35.0955" gradientUnits="userSpaceOnUse">
<stop stop-color="#FFC760"/>
<stop offset="1" stop-color="#CC922F"/>
</linearGradient>
</defs>
</svg>
