<svg width="19" height="19" viewBox="0 0 19 19" fill="none" xmlns="http://www.w3.org/2000/svg">
<path d="M16.4839 12.832L13.9439 12.542C13.6453 12.507 13.3426 12.54 13.0585 12.6387C12.7745 12.7375 12.5165 12.8993 12.3039 13.112L10.4639 14.952C7.62514 13.5083 5.31773 11.2008 3.87395 8.36203L5.72395 6.51203C6.15395 6.08203 6.36395 5.48203 6.29395 4.87203L6.00395 2.35203C5.94725 1.86421 5.71314 1.41427 5.34618 1.08788C4.97923 0.761491 4.50505 0.581449 4.01395 0.582033H2.28395C1.15395 0.582033 0.213947 1.52203 0.283947 2.65203C0.813947 11.192 7.64395 18.012 16.1739 18.542C17.3039 18.612 18.2439 17.672 18.2439 16.542V14.812C18.2539 13.802 17.4939 12.952 16.4839 12.832Z" fill="url(#paint0_linear_2517_11113)"/>
<defs>
<linearGradient id="paint0_linear_2517_11113" x1="9.78793" y1="-5.19201" x2="13.8661" y2="39.2104" gradientUnits="userSpaceOnUse">
<stop stop-color="#FFC760"/>
<stop offset="1" stop-color="#CC922F"/>
</linearGradient>
</defs>
</svg>
